<svg width="220" height="220" viewBox="0 0 220 220" fill="none" xmlns="http://www.w3.org/2000/svg">
  <rect width="220" height="220" rx="44" fill="#04342C"/>
  <path d="M62 126C62 96.1766 86.1766 72 116 72H158V100H116C101.641 100 90 111.641 90 126C90 140.359 101.641 152 116 152H158V180H116C86.1766 180 62 155.823 62 126Z" fill="#9FE1CB"/>
  <path d="M64 44H128C145.673 44 160 58.3269 160 76V78H130V76C130 74.8954 129.105 74 128 74H64V44Z" fill="#FF9933"/>
  <path d="M96 104H176C187.046 104 196 112.954 196 124C196 135.046 187.046 144 176 144H96V122H176C174.895 122 174 122.895 174 124C174 125.105 174.895 126 176 126H96V104Z" fill="#1D9E75"/>
</svg>
